/* XPM */
static char * sglwall_xpm[] = {
"50 50 63 1",
" 	c None",
".	c #1919A6",
"+	c #1919A7",
"@	c #1919A8",
"#	c #1919A9",
"$	c #1A1AAA",
"%	c #1A1AAC",
"&	c #1B1BB2",
"*	c #1B1BB8",
"=	c #1C1CBD",
"-	c #1C1CC1",
";	c #1C1CC0",
">	c #1C1CBB",
",	c #1B1BB5",
"'	c #1A1AAF",
")	c #1A1AAB",
"!	c #1A1AAD",
"~	c #1C1CB8",
"{	c #1E1EC7",
"]	c #1F1FD0",
"^	c #2020D5",
"/	c #2020D6",
"(	c #2020D7",
"_	c #2020D8",
":	c #1F1FD4",
"<	c #1E1ECC",
"[	c #1D1DC2",
"}	c #1919AA",
"|	c #2020DA",
"1	c #2121DC",
"2	c #2121DE",
"3	c #2020D9",
"4	c #1E1ECB",
"5	c #1A1AAE",
"6	c #1A1AB1",
"7	c #1F1FD1",
"8	c #1B1BB7",
"9	c #1D1DC4",
"0	c #1A1AB0",
"a	c #1F1FD2",
"b	c #2020DB",
"c	c #2121DD",
"d	c #1D1DC0",
"e	c #2020D2",
"f	c #1E1ECD",
"g	c #1B1BB9",
"h	c #2020D4",
"i	c #1F1FCE",
"j	c #1C1CB9",
"k	c #1B1BB4",
"l	c #1D1DC5",
"m	c #1C1CBA",
"n	c #2121DB",
"o	c #1919AB",
"p	c #1E1ECA",
"q	c #1B1BB6",
"r	c #1A1AA9",
"s	c #1C1CBC",
"t	c #1B1BB0",
"u	c #2020D3",
"v	c #1D1DC3",
"w	c #1B1BB1",
"x	c #1E1EC9",
"                     ........                     ",
"                 ...++@####@+....                 ",
"               ..@$%&*=---;>,')#+..               ",
"             .+#!~{]^/(____(/:<[&)@..             ",
"           .+}&[]/|1222222222213:4>5@..           ",
"          .@6[73122222222222222221(<>%+.          ",
"         .}8<31222222222222222222221^90+.         ",
"        +)>ab22222222222222222222222c34&@.        ",
"       @'dec22222222222222222222222222bfg}.       ",
"      +5[hc2222222222222222222222222222big@.      ",
"     .$>hc222222222222222222222222222222bf&+.     ",
"    .#jec22222222222222222222222222222222b40+.    ",
"    @kf1222222222222222222222222222222222239%.    ",
"   +5lb22222222222222222222222222222222222c^>@.   ",
"   @8h22222222222222222222222222222222222221<5.   ",
"  +5l122222222222222222222222222222222222222(>@.  ",
"  +kh22222222222222222222222222222222222222214).  ",
" .$=12222222222222222222222222222222222222222:&+. ",
" +04c22222222222222222222222222222222222222223[#. ",
" +k^222222222222222222222222222222222222222221<). ",
" #mn222222222222222222222222222222222222222222:'. ",
".o;1222222222222222222222222222222222222222222/,+.",
".!lc222222222222222222222222222222222222222222(>@.",
"+'pc222222222222222222222222222222222222222222_;#.",
"+04c222222222222222222222222222222222222222222_-#.",
"+04c222222222222222222222222222222222222222222_-#.",
"+04c222222222222222222222222222222222222222222_-#.",
".5{c222222222222222222222222222222222222222222(=@.",
".%[c222222222222222222222222222222222222222222/*+.",
" #=1222222222222222222222222222222222222222222^&+ ",
" +q_222222222222222222222222222222222222222221]%. ",
" +&]c2222222222222222222222222222222222222222|{$. ",
" .%[c2222222222222222222222222222222222222222/~@. ",
"  @8_2222222222222222222222222222222222222221]!.  ",
"  +0<c222222222222222222222222222222222222223[#.  ",
"   rs_222222222222222222222222222222222222217&+   ",
"   +t<c2222222222222222222222222222222222223[}.   ",
"    #gu22222222222222222222222222222222222b<6+    ",
"    .%d_222222222222222222222222222222222ca8@.    ",
"     +5v_2222222222222222222222222222222ce>}.     ",
"      +wx322222222222222222222222222222chd).      ",
"       #,x_222222222222222222222222222ch['+       ",
"        #wv_22222222222222222222222221e>5@        ",
"         +5duc2222222222222222222222bfj$+         ",
"          +%g<_c2222222222222222221hlk#.          ",
"           .#ts<_cc222222222222c1hl85@.           ",
"             +r08[]_1ccccccc1n^4=k5@+             ",
"               +@%&q=[{444pl;mk0$++               ",
"                 .++#%5000'!o#++.                 ",
"                     ..++++..                     "};
