/* XPM */
static char * dblhrzwall_xpm[] = {
"50 50 47 1",
" 	c #1919A6",
".	c #1919A7",
"+	c #1919AA",
"@	c #1919AB",
"#	c #1A1AAB",
"$	c #1A1AAC",
"%	c #1A1AAD",
"&	c #1A1AAE",
"*	c #1A1AAF",
"=	c #1D1DCD",
"-	c #1D1DCE",
";	c #1D1DCF",
">	c #1D1DD1",
",	c #1D1DD5",
"'	c #1D1DD7",
")	c #1D1DD3",
"!	c #1D1DD2",
"~	c #1E1ECB",
"{	c #1E1ECC",
"]	c #1E1ECD",
"^	c #1F1FCD",
"/	c #1F1FCE",
"(	c #1F1FD0",
"_	c #1F1FD2",
":	c #1F1FD1",
"<	c #1E1EC8",
"[	c #1E1EC7",
"}	c #2020DC",
"|	c #2020DD",
"1	c #2121DC",
"2	c #2121DD",
"3	c #2121DB",
"4	c #2121DE",
"5	c #2020D8",
"6	c #2020D9",
"7	c #2020DA",
"8	c #2020D7",
"9	c #2020D5",
"0	c #1F1FD4",
"a	c #1F1FD3",
"b	c #1B1BB3",
"c	c #1B1BB4",
"d	c #1B1BB6",
"e	c #1B1BB7",
"f	c #1B1BB8",
"g	c #1B1BB2",
"h	c #1919A8",
"                                    .........     ",
"++++++@@@@@@@@@@@@@@@@@@#$%%%%%%%%%%&***&&&&&&$###",
"==--;>,'''''''''''',)!!!~~{]^/^]{~~](_::::(((/~<[[",
"}}}}}}|||||||||||||||}}}11222222221222222222221133",
"44444444444444444444444444444444444444444444444444",
"44444444444444444444444444444444444444444444444444",
"44444444444444444444444444444444444444444444444444",
"44444444444444444444444444444444444444444444444444",
"44444444444444444444444444444444444444444444444444",
"44444444444444444444444444444444444444444444444444",
"44444444444444444444444444444444444444444444444444",
"44444444444444444444444444444444444444444444444444",
"44444444444444444444444444444444444444444444444444",
"44444444444444444444444444444444444444444444444444",
"44444444444444444444444444444444444444444444444444",
"44444444444444444444444444444444444444444444444444",
"44444444444444444444444444444444444444444444444444",
"44444444444444444444444444444444444444444444444444",
"44444444444444444444444444444444444444444444444444",
"44444444444444444444444444444444444444444444444444",
"44444444444444444444444444444444444444444444444444",
"44444444444444444444444444444444444444444444444444",
"44444444444444444444444444444444444444444444444444",
"44444444444444444444444444444444444444444444444444",
"44444444444444444444444444444444444444444444444444",
"44444444444444444444444444444444444444444444444444",
"44444444444444444444444444444444444444444444444444",
"44444444444444444444444444444444444444444444444444",
"44444444444444444444444444444444444444444444444444",
"44444444444444444444444444444444444444444444444444",
"44444444444444444444444444444444444444444444444444",
"44444444444444444444444444444444444444444444444444",
"44444444444444444444444444444444444444444444444444",
"44444444444444444444444444444444444444444444444444",
"44444444444444444444444444444444444444444444444444",
"44444444444444444444444444444444444444444444444444",
"44444444444444444444444444444444444444444444444444",
"44444444444444444444444444444444444444444444444444",
"44444444444444444444444444444444444444444444444444",
"44444444444444444444444444444444444444444444444444",
"44444444444444444444444444444444444444444444444444",
"44444444444444444444444444444444444444444444444444",
"44444444444444444444444444444444444444444444444444",
"44444444444444444444444444444444444444444444444444",
"44444444444444444444444444444444444444444444444444",
"44444444444444444444444444444444444444444444444444",
"}}}}}}|||||||||||||||}}}44444444444444444444442222",
"==--;>,'''''''''''',)!!!5556666677777777777776890a",
"++++++@@@@@@@@@@@@@@@@@@bbbbbbbcdeeffffffeeeedcggg",
"                        ........hhhhhhhhhhhhhh...."};
