/* XPM */
static char * dblvrtwall_xpm[] = {
"50 50 47 1",
" 	c #1919A6",
".	c #1A1AAB",
"+	c #1E1EC7",
"@	c #2121DB",
"#	c #2121DE",
"$	c #2121DD",
"%	c #1F1FD3",
"&	c #1B1BB2",
"*	c #1919A7",
"=	c #1F1FD4",
"-	c #1E1EC8",
";	c #2121DC",
">	c #2020D5",
",	c #1A1AAC",
"'	c #1E1ECB",
")	c #2020D7",
"!	c #1B1BB4",
"~	c #1A1AAE",
"{	c #1F1FCE",
"]	c #2020D9",
"^	c #1B1BB6",
"/	c #1919A8",
"(	c #1F1FD0",
"_	c #2020DA",
":	c #1B1BB7",
"<	c #1F1FD1",
"[	c #1B1BB8",
"}	c #1A1AAF",
"|	c #1F1FD2",
"1	c #1A1AAD",
"2	c #1E1ECD",
"3	c #1E1ECC",
"4	c #1F1FCD",
"5	c #1B1BB3",
"6	c #2020D8",
"7	c #1919AB",
"8	c #1D1DD2",
"9	c #2020DC",
"0	c #1D1DD3",
"a	c #2020DD",
"b	c #1D1DD5",
"c	c #1D1DD7",
"d	c #1919AA",
"e	c #1D1DD1",
"f	c #1D1DCF",
"g	c #1D1DCE",
"h	c #1D1DCD",
" .+@##########################################$%&*",
" .+@##########################################$=&*",
" .-;##########################################$>&*",
" ,';##########################################$)!*",
" ~{$###########################################]^/",
"*~($###########################################_:/",
"*~($###########################################_:/",
"*~($###########################################_:/",
"*~<$###########################################_:/",
"*~<$###########################################_[/",
"*}<$###########################################_[/",
"*}<$###########################################_[/",
"*}|$###########################################_[/",
"*~($###########################################_[/",
" 12$###########################################_[/",
" 1';###########################################_:/",
" 1'$###########################################_:/",
" 13$###########################################_^/",
" 12$###########################################]!*",
" 14$###########################################]5*",
" 1{$###########################################]5*",
" 14$###########################################]5*",
" 12$###########################################]5*",
" 13$###########################################65*",
" ,';###########################################65*",
" .';###########################################65*",
" 789##########################################987 ",
" 789##########################################987 ",
" 789##########################################987 ",
" 70a##########################################a07 ",
" 7ba##########################################ab7 ",
" 7ca##########################################ac7 ",
" 7ca##########################################ac7 ",
" 7ca##########################################ac7 ",
" 7ca##########################################ac7 ",
" 7ca##########################################ac7 ",
" 7ca##########################################ac7 ",
" 7ca##########################################ac7 ",
" 7ca##########################################ac7 ",
" 7ca##########################################ac7 ",
" 7ca##########################################ac7 ",
" 7ca##########################################ac7 ",
" 7ca##########################################ac7 ",
" 7ba##########################################ab7 ",
" de9##########################################9ed ",
" df9##########################################9fd ",
" dg9##########################################9gd ",
" dg9##########################################9gd ",
" dh9##########################################9hd ",
" dh9##########################################9hd "};
