/* XPM */
static char * dvert_xpm[] = {
"50 50 64 1",
" 	c None",
".	c #1919A6",
"+	c #1D1DCF",
"@	c #2020DD",
"#	c #2121DE",
"$	c #1D1DD0",
"%	c #1D1DD1",
"&	c #1D1DDA",
"*	c #1D1DD5",
"=	c #1A1AAF",
"-	c #2121DB",
";	c #1E1ECC",
">	c #1919A8",
",	c #2121DC",
"'	c #1F1FCE",
")	c #1A1AAA",
"!	c #1A1AB0",
"~	c #1F1FCF",
"{	c #1919A7",
"]	c #1B1BB5",
"^	c #2121DD",
"/	c #1E1ECD",
"(	c #1E1ECB",
"_	c #1B1BB6",
":	c #1F1FD4",
"<	c #1A1AAB",
"[	c #1F1FD3",
"}	c #1F1FD2",
"|	c #1B1BB4",
"1	c #2020D8",
"2	c #1E1ECA",
"3	c #2020D5",
"4	c #1E1EC7",
"5	c #1919A9",
"6	c #1C1CC1",
"7	c #1C1CC0",
"8	c #1C1CBB",
"9	c #2020D7",
"0	c #1D1DC5",
"a	c #1A1AAD",
"b	c #2020D6",
"c	c #1919AB",
"d	c #1C1CBA",
"e	c #1D1DC2",
"f	c #2020D9",
"g	c #1B1BB2",
"h	c #1C1CBD",
"i	c #2020D4",
"j	c #1A1AAE",
"k	c #1B1BB7",
"l	c #2020DB",
"m	c #1A1AAC",
"n	c #1D1DC4",
"o	c #2020D2",
"p	c #1C1CB9",
"q	c #1B1BB9",
"r	c #1919AA",
"s	c #1D1DC0",
"t	c #1F1FD1",
"u	c #1A1AB1",
"v	c #2020DA",
"w	c #1F1FD0",
"x	c #1C1CB8",
"y	c #1B1BB8",
"..+@##########################################@+..",
"..$@##########################################@$..",
"..%@##########################################@%..",
"..&@##########################################@&..",
"..&@##########################################@&..",
"..&@##########################################@&..",
"..&@##########################################@&..",
"..&@##########################################@&..",
"..&@##########################################@&..",
"..&@##########################################@&..",
"..*@##########################################@*..",
"..*@##########################################@*..",
".=-############################################;>.",
".=,############################################').",
".!,############################################~).",
".!,############################################~).",
"{]^############################################/).",
"{]^############################################().",
"{_^############################################:<.",
"{]^############################################[<.",
"{]^############################################[<.",
"{]^############################################}<.",
"{|^############################################}<.",
"{=1###########################################^2>.",
"{=3###########################################^4>.",
".561##########################################^(!{",
".571##########################################^2={",
".>89##########################################^0a.",
".{]b##########################################,7c.",
" .=:##########################################-d5 ",
" .<;,#########################################3|{ ",
" .5ef########################################^(!{ ",
" .{g:########################################,h). ",
"  .<(,#######################################i|{  ",
"  .>89######################################,0j{  ",
"   .j;,#####################################ik>   ",
"   .>83^###################################l0j{   ",
"    .mnf##################################,/|>    ",
"    .{!(l################################^op5.    ",
"     .{g/l##############################^i8).     ",
"      .>q'l############################^iej{      ",
"       .rq/l##########################^os=>       ",
"        .>g(f^#######################l}8<{        ",
"         .{!n3,####################,f;kr.         ",
"          .{m8;9,################,fteu>.          ",
"           ..>j8(:f,##########,vbwegr{.           ",
"             ..><ge;:b911119b3w4xa5{.             ",
"               ..{5<=]87666hygm)>..               ",
"                 ....{>5555>{{...                 ",
"                     ........                     "};
