/* XPM */
static char * dwall_xpm[] = {
"50 50 33 1",
" 	c #2121DE",
".	c #2121DB",
"+	c #2121DC",
"@	c #2121DD",
"#	c #2020DC",
"$	c #2020DD",
"%	c #1E1EC7",
"&	c #1E1EC8",
"*	c #1E1ECB",
"=	c #1F1FCE",
"-	c #1F1FD0",
";	c #1F1FD1",
">	c #1F1FD2",
",	c #1E1ECD",
"'	c #1E1ECC",
")	c #1F1FCD",
"!	c #1D1DD2",
"~	c #1D1DD3",
"{	c #1D1DD5",
"]	c #1D1DD7",
"^	c #1D1DD1",
"/	c #1D1DCF",
"(	c #1D1DCE",
"_	c #1D1DCD",
":	c #1A1AAB",
"<	c #1A1AAC",
"[	c #1A1AAE",
"}	c #1A1AAF",
"|	c #1A1AAD",
"1	c #1919AB",
"2	c #1919AA",
"3	c #1919A6",
"4	c #1919A7",
"                                                  ",
"                                                  ",
"                                                  ",
"                                                  ",
"                                                  ",
"                                                  ",
"                                                  ",
"                                                  ",
"                                                  ",
"                                                  ",
"                                                  ",
"                                                  ",
"                                                  ",
"                                                  ",
"                                                  ",
"                                                  ",
"                                                  ",
"                                                  ",
"                                                  ",
"                                                  ",
"                                                  ",
"                                                  ",
"                                                  ",
"                                                  ",
"                                                  ",
"                                                  ",
"                                                  ",
"                                                  ",
"                                                  ",
"                                                  ",
"                                                  ",
"                                                  ",
"                                                  ",
"                                                  ",
"                                                  ",
"                                                  ",
"                                                  ",
"                                                  ",
"                                                  ",
"                                                  ",
"                                                  ",
"                                                  ",
"                                                  ",
"                                                  ",
"                                                  ",
"                                                  ",
"..++@@@@@@@@@@@+@@@@@@@@++###$$$$$$$$$$$$$$$######",
"%%&*=---;;;;>-,**',)=),'**!!!~{]]]]]]]]]]]]{^/((__",
":::<[[[[[[}}}[||||||||||<:111111111111111111222222",
"33333444444444333333333333333333333333333333333333"};
