/* XPM */
static char * enemy_u_xpm[] = {
"50 50 261 2",
"  	c None",
". 	c #E60012",
"+ 	c #E60010",
"@ 	c #E6000F",
"# 	c #E60011",
"$ 	c #E60113",
"% 	c #E60415",
"& 	c #E60515",
"* 	c #E60314",
"= 	c #E60615",
"- 	c #E60213",
"; 	c #E6000B",
"> 	c #E62429",
", 	c #E54F51",
"' 	c #E55B5D",
") 	c #E55659",
"! 	c #E5494C",
"~ 	c #E62C31",
"{ 	c #E6131E",
"] 	c #E62F34",
"^ 	c #E55C5E",
"/ 	c #E55356",
"( 	c #E53539",
"_ 	c #E61721",
": 	c #E60000",
"< 	c #E54042",
"[ 	c #E38485",
"} 	c #E39798",
"| 	c #E39091",
"1 	c #E47B7D",
"2 	c #E54E50",
"3 	c #E6000A",
"4 	c #E6272D",
"5 	c #E55154",
"6 	c #E39899",
"7 	c #E3999A",
"8 	c #E38B8C",
"9 	c #E62D32",
"0 	c #E6000C",
"a 	c #E55658",
"b 	c #E1B1B1",
"c 	c #DFCBCB",
"d 	c #DFCCCC",
"e 	c #E0C1C2",
"f 	c #E2A7A7",
"g 	c #E56A6B",
"h 	c #E6000E",
"i 	c #E5353A",
"j 	c #E46F71",
"k 	c #E1B2B3",
"l 	c #DFCDCD",
"m 	c #DFCECE",
"n 	c #E1BBBB",
"o 	c #E47C7D",
"p 	c #E53E41",
"q 	c #E47E7F",
"r 	c #E38788",
"s 	c #E29B9C",
"t 	c #DEDFDF",
"u 	c #DEE0E0",
"v 	c #DFD9D8",
"w 	c #E0C7C7",
"x 	c #E2A5A5",
"y 	c #E47677",
"z 	c #E6383C",
"A 	c #E6000D",
"B 	c #E55E60",
"C 	c #E39192",
"D 	c #E2A6A7",
"E 	c #DEE1E1",
"F 	c #DFD4D4",
"G 	c #E1ACAD",
"H 	c #E38D8D",
"I 	c #E47071",
"J 	c #E63A3D",
"K 	c #E60004",
"L 	c #E60D19",
"M 	c #E47475",
"N 	c #E0C3C3",
"O 	c #DFD5D5",
"P 	c #DEDBDB",
"Q 	c #DEDEDE",
"R 	c #DEDDDD",
"S 	c #DED8D8",
"T 	c #E1B9B9",
"U 	c #E60001",
"V 	c #E60C19",
"W 	c #E39494",
"X 	c #E0C3C4",
"Y 	c #DFD6D6",
"Z 	c #DFD7D7",
"` 	c #DFCACA",
" .	c #E1ADAD",
"..	c #E55F5F",
"+.	c #E60E1A",
"@.	c #E47B7C",
"#.	c #DFCECF",
"$.	c #DEE2E2",
"%.	c #E56163",
"&.	c #E29C9D",
"*.	c #DFCFCF",
"=.	c #DFD4D5",
"-.	c #E1B6B7",
";.	c #E56565",
">.	c #E60B18",
",.	c #E47A7B",
"'.	c #E0C2C2",
").	c #E56162",
"!.	c #E60D1A",
"~.	c #E56062",
"{.	c #DEDDDE",
"].	c #DFD3D4",
"^.	c #E1B5B6",
"/.	c #E56465",
"(.	c #E60616",
"_.	c #E60817",
":.	c #DEE1E0",
"<.	c #DDDDDD",
"[.	c #DCDCDC",
"}.	c #DDDFDF",
"|.	c #E60716",
"1.	c #DBDBDB",
"2.	c #CECECE",
"3.	c #C8C8C8",
"4.	c #CBCBCB",
"5.	c #D0D0D0",
"6.	c #D9DBDB",
"7.	c #E0C2C3",
"8.	c #DCDEDE",
"9.	c #D8D8D8",
"0.	c #CCCCCC",
"a.	c #D7D6D6",
"b.	c #DDD1D2",
"c.	c #DFE2E2",
"d.	c #D6D6D6",
"e.	c #B3B3B3",
"f.	c #A0A0A0",
"g.	c #A8A8A8",
"h.	c #B9B9B9",
"i.	c #D1D3D3",
"j.	c #E29C9C",
"k.	c #DADCDC",
"l.	c #CFD0D0",
"m.	c #9F9F9F",
"n.	c #9E9E9E",
"o.	c #ADADAD",
"p.	c #DBCFCF",
"q.	c #E60816",
"r.	c #E0E2E2",
"s.	c #D0CFCF",
"t.	c #8A8A8A",
"u.	c #525252",
"v.	c #535353",
"w.	c #6D6D6D",
"x.	c #989898",
"y.	c #C7C9C9",
"z.	c #E1C3C3",
"A.	c #D8DADA",
"B.	c #C5C5C5",
"C.	c #8B8B8B",
"D.	c #505050",
"E.	c #4E4E4E",
"F.	c #7D7D7D",
"G.	c #BEBDBD",
"H.	c #D8CBCB",
"I.	c #E1B4B5",
"J.	c #E47476",
"K.	c #E0C5C5",
"L.	c #E1D9D9",
"M.	c #CEC5C5",
"N.	c #777171",
"O.	c #000000",
"P.	c #4B4646",
"Q.	c #8B8484",
"R.	c #C5BEBE",
"S.	c #E2BBBB",
"T.	c #E55D5F",
"U.	c #E55B5E",
"V.	c #E39595",
"W.	c #D8D0D0",
"X.	c #C2B9B9",
"Y.	c #797373",
"Z.	c #656060",
"`.	c #B9B0B0",
" +	c #D7C1C2",
".+	c #E1ADAE",
"++	c #E56061",
"@+	c #E56566",
"#+	c #E2ACAC",
"$+	c #E3BDBD",
"%+	c #D0ACAC",
"&+	c #7A6464",
"*+	c #000404",
"=+	c #000303",
"-+	c #4F4040",
";+	c #8D7474",
">+	c #C7A5A5",
",+	c #E3A2A3",
"'+	c #E65052",
")+	c #E60005",
"!+	c #E60917",
"~+	c #E54E51",
"{+	c #E48182",
"]+	c #DAB5B5",
"^+	c #C4A1A1",
"/+	c #7C6565",
"(+	c #685555",
"_+	c #BB9999",
":+	c #D8A8A9",
"<+	c #E29697",
"[+	c #E55354",
"}+	c #E6383B",
"|+	c #E56364",
"1+	c #E76E6E",
"2+	c #D46363",
"3+	c #7B3838",
"4+	c #000101",
"5+	c #4F2222",
"6+	c #8E4141",
"7+	c #CA5F5F",
"8+	c #E65E5E",
"9+	c #E62B30",
"0+	c #E62A2E",
"a+	c #E5494A",
"b+	c #E56363",
"c+	c #DE6969",
"d+	c #C75D5D",
"e+	c #7E3838",
"f+	c #6A2F2E",
"g+	c #BE5858",
"h+	c #DC6162",
"i+	c #E45657",
"j+	c #E62D30",
"k+	c #E60008",
"l+	c #E80000",
"m+	c #DB0000",
"n+	c #AB0000",
"o+	c #8F0007",
"p+	c #900007",
"q+	c #9C0004",
"r+	c #B40000",
"s+	c #D50000",
"t+	c #E70000",
"u+	c #E20000",
"v+	c #D40000",
"w+	c #AD0000",
"x+	c #900107",
"y+	c #8E0107",
"z+	c #A50001",
"A+	c #CF0000",
"B+	c #E10000",
"C+	c #E40011",
"D+	c #DC0010",
"E+	c #D80010",
"F+	c #DA0010",
"G+	c #DD0010",
"H+	c #E30011",
"I+	c #E50011",
"J+	c #DB0010",
"K+	c #E20011",
"L+	c #E50012",
"                                                                                                    ",
"                                                                                                    ",
"                                                                                                    ",
"                                                                                                    ",
"                                                                                                    ",
"                                                                                                    ",
"                                                                                                    ",
"                                                                                                    ",
"                                        . . . . . . . . . .                                         ",
"                                        . . . . . . . . . . .                                       ",
"                                        . . . . . . . . . . . .                                     ",
"                            . . . . . . . . . . . . . . . . . . . . . .                             ",
"                            . . . . . . . . . . . . . . . . . . . . . .                             ",
"                            . . . . . . . . . . . . . . . . . . . . . .                             ",
"                      . . . . . . . . . . . . . . . . . . . . . . . . . . . .                       ",
"                    . . . . . . . . . . . . . . . . . . . . . . . . . . . . . . .                   ",
"                  . . . . . + @ @ @ + + # . . . . . . . . . # + @ @ @ + # . . . . .                 ",
"                  . . . . $ % & & & & * $ . . . . . . . . . $ % = & = % - . . . . .                 ",
"                  . . . ; > , ' ' ' ) ! ~ + # . . . . . . { ] , ^ ' ^ / ( _ - . . .                 ",
"                  . . . : < [ } } } | 1 2 3 + . . . . . . 4 5 [ 6 } 7 8 ' 9 & # . .                 ",
"                  . + 0 : a b c c d e f g : 0 . . . # h ; i j k l d m n o p % h . .                 ",
"                  & ! q r s l t t u v w x y z A # & z B q C D m E u E F G H I J K .                 ",
"                  L M N O O P Q Q Q R P S T ^ U @ V ' W X O Y P Q Q Q R Z `  ...: #                 ",
"                  +.@.#.$.t Q Q Q Q Q t E N %.: @ +.%.&.*.E t Q Q Q Q Q Q =.-.;.: #                 ",
"                  >.,.m u Q Q Q Q Q Q Q u '.).: @ !.~.s m u Q Q Q Q Q t {.].^./.: #                 ",
"          . . # (._.,.m :.Q <.[.[.[.<.<.}.'.).: @ !.~.s m u Q <.[.[.[.<.R ].^./.: # . .             ",
"          . . # & |.,.m E 1.2.3.3.3.4.5.6.7.%.: @ !.~.s m 8.9.2.3.3.3.0.a.b.^./.: # . .             ",
"          . . # & _.,.m c.d.e.f.f.f.g.h.i.N %.: @ +.~.j.m k.l.e.m.f.n.o.0.p.^.;.: # . .             ",
"          . . # & q.,.m r.s.t.u.v.u.w.x.y.z.%.: @ !.~.s m A.B.C.D.u.E.F.G.H.I./.: # . .             ",
"          . . # & |.J.K.L.M.N.O.O.O.P.Q.R.S.T.: @ V U.V.K.W.X.Y.O.O.O.Z.`. +.+++: # . .             ",
"          . . # * = @+#+$+%+&+*+=+O.-+;+>+,+'+)++ !+~+{+#+]+^+/+O.O.O.(+_+:+<+[+: # . .             ",
"          . . . $ - }+|+1+2+3+4+4+O.5+6+7+8+9+@ # * 0+a+b+c+d+e+O.O.O.f+g+h+i+j+3 . . .             ",
"          . . . . . k+: l+m+n+o+p+p+q+r+s+t+0 . . . ; : : u+v+w+x+p+y+z+A+B+: 0 $ . . .             ",
"          . . . . . . # # C+D+E+E+E+F+G+H+# . . . . . # # I+H+D+E+E+E+J+K+I+# . . . . .             ",
"          . . . . . . . . . L+L+L+L+L+L+. . . . . . . . . . . L+L+L+L+L+. . . . . . . .             ",
"          . . . . . . . . . . . . . . . . . . . . . . . . . . . . . . . . . . . . . . .             ",
"          . . . . . . . . . . . . . . . . . . . . . . . . . . . . . . . . . . . . . . .             ",
"          . . . . . . . . . . . . . . . . . . . . . . . . . . . . . . . . . . . . . . .             ",
"          . . . . . . . . . . . . . . . . . . . . . . . . . . . . . . . . . . . . . . .             ",
"          . . . . . . . . . . . . . . . . . . . . . . . . . . . . . . . . . . . . . . .             ",
"          . . . . . . . . . . . . . . . . . . . . . . . . . . . . . . . . . . . . . . .             ",
"          . . . . . . . . . . . . . . . . . . . . . . . . . . . . . . . . . . . . . . .             ",
"          . . . . . . . . . . .       . . . . . . . . . . . .     . . . . . . . . . . .             ",
"          . . . . . . . . . .         . . . . . . . . . . . .     . . . . . . . . . .               ",
"                . . . . .                   . . . . . .                 . . . . .                   ",
"                  . . . .                   . . . . . .                 . . . . .                   ",
"                    . .                     . . . . . .                 . . . .                     ",
"                                                                                                    ",
"                                                                                                    ",
"                                                                                                    "};
