/* XPM */
static char * lwall_xpm[] = {
"50 50 33 1",
" 	c #1919A6",
".	c #1A1AAB",
"+	c #1E1EC7",
"@	c #2121DB",
"#	c #2121DE",
"$	c #1E1EC8",
"%	c #2121DC",
"&	c #1A1AAC",
"*	c #1E1ECB",
"=	c #1A1AAE",
"-	c #1F1FCE",
";	c #2121DD",
">	c #1919A7",
",	c #1F1FD0",
"'	c #1F1FD1",
")	c #1A1AAF",
"!	c #1F1FD2",
"~	c #1A1AAD",
"{	c #1E1ECD",
"]	c #1E1ECC",
"^	c #1F1FCD",
"/	c #1919AB",
"(	c #1D1DD2",
"_	c #2020DC",
":	c #1D1DD3",
"<	c #2020DD",
"[	c #1D1DD5",
"}	c #1D1DD7",
"|	c #1919AA",
"1	c #1D1DD1",
"2	c #1D1DCF",
"3	c #1D1DCE",
"4	c #1D1DCD",
" .+@##############################################",
" .+@##############################################",
" .$%##############################################",
" &*%##############################################",
" =-;##############################################",
">=,;##############################################",
">=,;##############################################",
">=,;##############################################",
">=';##############################################",
">=';##############################################",
">)';##############################################",
">)';##############################################",
">)!;##############################################",
">=,;##############################################",
" ~{;##############################################",
" ~*%##############################################",
" ~*;##############################################",
" ~];##############################################",
" ~{;##############################################",
" ~^;##############################################",
" ~-;##############################################",
" ~^;##############################################",
" ~{;##############################################",
" ~];##############################################",
" &*%##############################################",
" .*%##############################################",
" /(_##############################################",
" /(_##############################################",
" /(_##############################################",
" /:<##############################################",
" /[<##############################################",
" /}<##############################################",
" /}<##############################################",
" /}<##############################################",
" /}<##############################################",
" /}<##############################################",
" /}<##############################################",
" /}<##############################################",
" /}<##############################################",
" /}<##############################################",
" /}<##############################################",
" /}<##############################################",
" /}<##############################################",
" /[<##############################################",
" |1_##############################################",
" |2_##############################################",
" |3_##############################################",
" |3_##############################################",
" |4_##############################################",
" |4_##############################################"};
