/* XPM */
static char * nocorner_xpm[] = {
"50 50 90 1",
" 	c None",
".	c #1919A6",
"+	c #1919A7",
"@	c #1919A8",
"#	c #1919A9",
"$	c #1919AA",
"%	c #1919AB",
"&	c #1A1AAC",
"*	c #1A1AAD",
"=	c #1A1AAE",
"-	c #1A1AAF",
";	c #1A1AA9",
">	c #1A1AAA",
",	c #1A1AB0",
"'	c #1A1AB3",
")	c #1B1BB5",
"!	c #1B1BB7",
"~	c #1B1BB9",
"{	c #1B1BBA",
"]	c #1B1BBB",
"^	c #1A1AAB",
"/	c #1B1BB0",
"(	c #1B1BB3",
"_	c #1C1CB8",
":	c #1C1CBA",
"<	c #1C1CBD",
"[	c #1C1CBF",
"}	c #1D1DC1",
"|	c #1D1DC3",
"1	c #1D1DC5",
"2	c #1D1DC6",
"3	c #1D1DC7",
"4	c #1B1BB2",
"5	c #1C1CB7",
"6	c #1D1DBD",
"7	c #1D1DC2",
"8	c #1E1EC6",
"9	c #1E1EC9",
"0	c #1F1FCB",
"a	c #1F1FCD",
"b	c #1F1FCE",
"c	c #1F1FCF",
"d	c #1F1FD0",
"e	c #1F1FD1",
"f	c #1F1FD2",
"g	c #1F1FD3",
"h	c #1A1AB1",
"i	c #1C1CB9",
"j	c #1D1DBE",
"k	c #2020D4",
"l	c #2020D6",
"m	c #2020D8",
"n	c #2020D9",
"o	c #2020DA",
"p	c #1E1ECA",
"q	c #1F1FD4",
"r	c #2121DA",
"s	c #2121DB",
"t	c #2121DC",
"u	c #2121DD",
"v	c #1E1ECB",
"w	c #2020D7",
"x	c #2020DB",
"y	c #2121DE",
"z	c #1A1AB2",
"A	c #1D1DC0",
"B	c #1E1ECC",
"C	c #2020D5",
"D	c #1D1DC4",
"E	c #1B1BB8",
"F	c #1C1CC1",
"G	c #1C1CBC",
"H	c #1E1ECF",
"I	c #1F1FD5",
"J	c #2020DC",
"K	c #1E1EC7",
"L	c #1D1DBF",
"M	c #1E1EC8",
"N	c #2020D1",
"O	c #2020D2",
"P	c #2020D3",
"Q	c #1B1BB4",
"R	c #1C1CBB",
"S	c #1E1EC4",
"T	c #1E1ECD",
"U	c #1E1ECE",
"V	c #1B1BB6",
"W	c #1B1BB1",
"X	c #1C1CBE",
"Y	c #1C1CC0",
"                                          ........",
"                                          .....+++",
"                                  ......+++++@@@@@",
"                                  ..+++@#$%&*=----",
"                              ....+@;;>&=,')!~{]]]",
"                              +++#^*/()_:<[}|12333",
"                          ..++@#>*4567890abcdefggg",
"                          ++#^=h)ij|9beklmmmnnnooo",
"                      ..+@#$=4i[1paeqlmrsttttuuuuu",
"                      .+#%-(_j1vekwnoxtuyyyyyyyyyy",
"                    ..+#*z~A8BeCmrttuuuyyyyyyyyyyy",
"                    +@$-)<Dvelnxtuyyyyyyyyyyyyyyyy",
"                  .+@%hEF9dCmrtuuyyyyyyyyyyyyyyyyy",
"                  +#&z{|Bgmxtuyyyyyyyyyyyyyyyyyyyy",
"                +@;*(G3HInJuuyyyyyyyyyyyyyyyyyyyyy",
"                #^-)6KdwoJuyyyyyyyyyyyyyyyyyyyyyyy",
"              @#&,5LMdwsuyyyyyyyyyyyyyyyyyyyyyyyyy",
"              #&hi}9Nwsuyyyyyyyyyyyyyyyyyyyyyyyyyy",
"            +#^hi70Omsuyyyyyyyyyyyyyyyyyyyyyyyyyyy",
"            +>-!7vPmtuyyyyyyyyyyyyyyyyyyyyyyyyyyyy",
"          .+;*QjpPmtuyyyyyyyyyyyyyyyyyyyyyyyyyyyyy",
"          +@&(GKemtuyyyyyyyyyyyyyyyyyyyyyyyyyyyyyy",
"        .+@^4RKdwtuyyyyyyyyyyyyyyyyyyyyyyyyyyyyyyy",
"        .@$h:Scwsuyyyyyyyyyyyyyyyyyyyyyyyyyyyyyyyy",
"        +$-!|TCsuyyyyyyyyyyyyyyyyyyyyyyyyyyyyyyyyy",
"        #*)[vqouyyyyyyyyyyyyyyyyyyyyyyyyyyyyyyyyyy",
"      +#^zG3fntyyyyyyyyyyyyyyyyyyyyyyyyyyyyyyyyyyy",
"      +#=!|UwJyyyyyyyyyyyyyyyyyyyyyyyyyyyyyyyyyyyy",
"      @%hGpkoyyyyyyyyyyyyyyyyyyyyyyyyyyyyyyyyyyyyy",
"      #=V7dmtyyyyyyyyyyyyyyyyyyyyyyyyyyyyyyyyyyyyy",
"    +@^zGMksuyyyyyyyyyyyyyyyyyyyyyyyyyyyyyyyyyyyyy",
"    +#*V|bmuyyyyyyyyyyyyyyyyyyyyyyyyyyyyyyyyyyyyyy",
"    +$,R9kryyyyyyyyyyyyyyyyyyyyyyyyyyyyyyyyyyyyyyy",
"    @^(Lcmtyyyyyyyyyyyyyyyyyyyyyyyyyyyyyyyyyyyyyyy",
"  .+;=VDPsuyyyyyyyyyyyyyyyyyyyyyyyyyyyyyyyyyyyyyyy",
"  .+>WGMluyyyyyyyyyyyyyyyyyyyyyyyyyyyyyyyyyyyyyyyy",
"  +@&)7Tmuyyyyyyyyyyyyyyyyyyyyyyyyyyyyyyyyyyyyyyyy",
"  +#=~3fouyyyyyyyyyyyyyyyyyyyyyyyyyyyyyyyyyyyyyyyy",
"  +$,Gvlsyyyyyyyyyyyyyyyyyyyyyyyyyyyyyyyyyyyyyyyyy",
"  @^4Lcntyyyyyyyyyyyyyyyyyyyyyyyyyyyyyyyyyyyyyyyyy",
"  @&Q7Osuyyyyyyyyyyyyyyyyyyyyyyyyyyyyyyyyyyyyyyyyy",
"  #=!Dktyyyyyyyyyyyyyyyyyyyyyyyyyyyyyyyyyyyyyyyyyy",
".+$,{3Ctyyyyyyyyyyyyyyyyyyyyyyyyyyyyyyyyyyyyyyyyyy",
".+$hG9luyyyyyyyyyyyyyyyyyyyyyyyyyyyyyyyyyyyyyyyyyy",
".+^(Xvwuyyyyyyyyyyyyyyyyyyyyyyyyyyyyyyyyyyyyyyyyyy",
".@&QYTmuyyyyyyyyyyyyyyyyyyyyyyyyyyyyyyyyyyyyyyyyyy",
"+@*V7bmuyyyyyyyyyyyyyyyyyyyyyyyyyyyyyyyyyyyyyyyyyy",
"+#*!Dcnuyyyyyyyyyyyyyyyyyyyyyyyyyyyyyyyyyyyyyyyyyy",
"+#=!Ddnuyyyyyyyyyyyyyyyyyyyyyyyyyyyyyyyyyyyyyyyyyy",
"+#=!1dnuyyyyyyyyyyyyyyyyyyyyyyyyyyyyyyyyyyyyyyyyyy"};
