/* XPM */
static char * enemy_d_xpm[] = {
"50 50 246 2",
"  	c None",
". 	c #E60012",
"+ 	c #E70012",
"@ 	c #DC0011",
"# 	c #E40012",
"$ 	c #DD0011",
"% 	c #B6000C",
"& 	c #000000",
"* 	c #520002",
"= 	c #930007",
"- 	c #CE000E",
"; 	c #E70011",
"> 	c #E60011",
", 	c #E00010",
"' 	c #CC000E",
") 	c #860006",
"! 	c #520000",
"~ 	c #910000",
"{ 	c #CC0000",
"] 	c #E70000",
"^ 	c #E6000B",
"/ 	c #E60008",
"( 	c #E60000",
"_ 	c #DF0000",
": 	c #C80000",
"< 	c #7E0000",
"[ 	c #000101",
"} 	c #010101",
"| 	c #414141",
"1 	c #502020",
"2 	c #904141",
"3 	c #CA6161",
"4 	c #E65F60",
"5 	c #E62C31",
"6 	c #E6000E",
"7 	c #E60314",
"8 	c #E62B2F",
"9 	c #E54A4B",
"0 	c #E56465",
"a 	c #DE6A6A",
"b 	c #C75E5E",
"c 	c #7D3838",
"d 	c #353535",
"e 	c #DEDEDE",
"f 	c #E1E1E1",
"g 	c #CBCBCB",
"h 	c #737373",
"i 	c #141414",
"j 	c #161616",
"k 	c #101111",
"l 	c #534848",
"m 	c #8E7C7C",
"n 	c #C7AFAF",
"o 	c #E3ABAC",
"p 	c #E55557",
"q 	c #E60003",
"r 	c #E60010",
"s 	c #E60A18",
"t 	c #E55356",
"u 	c #E38889",
"v 	c #E1B4B4",
"w 	c #DABEBF",
"x 	c #C3A9AA",
"y 	c #7D6C6D",
"z 	c #080C0C",
"A 	c #616161",
"B 	c #B5B5B5",
"C 	c #D5D5D5",
"D 	c #DDDDDD",
"E 	c #E0E0E0",
"F 	c #D1D1D1",
"G 	c #929292",
"H 	c #646464",
"I 	c #636363",
"J 	c #797878",
"K 	c #9E9C9C",
"L 	c #CAC9C9",
"M 	c #E1C0C0",
"N 	c #E56062",
"O 	c #E6000F",
"P 	c #E60D1A",
"Q 	c #E55E61",
"R 	c #E2999A",
"S 	c #E0CBCB",
"T 	c #D9D7D7",
"U 	c #C7C4C4",
"V 	c #929090",
"W 	c #5F5F5F",
"X 	c #858585",
"Y 	c #C0BFBF",
"Z 	c #D7D4D4",
"` 	c #DED9D9",
" .	c #DEDBDB",
"..	c #DFDFDF",
"+.	c #B2B2B2",
"@.	c #9E9E9E",
"#.	c #A7A7A7",
"$.	c #B9B9B9",
"%.	c #D1D3D3",
"&.	c #E1C2C3",
"*.	c #E56163",
"=.	c #E29B9C",
"-.	c #DFCECE",
";.	c #DBDCDC",
">.	c #D0CFCF",
",.	c #9D9D9D",
"'.	c #9C9C9C",
").	c #ABACAC",
"!.	c #DAD3D3",
"~.	c #E48485",
"{.	c #DFD1D1",
"].	c #DEE0E0",
"^.	c #DCDCDC",
"/.	c #D4D4D4",
"(.	c #D0D0D0",
"_.	c #D2D2D2",
":.	c #DBDDDD",
"<.	c #E0C2C2",
"[.	c #E60E1A",
"}.	c #DDDFDF",
"|.	c #DADADA",
"1.	c #D2D3D3",
"2.	c #D9D9D9",
"3.	c #DED3D4",
"4.	c #E1BCBC",
"5.	c #E47071",
"6.	c #E4797B",
"7.	c #DFCDCD",
"8.	c #E56162",
"9.	c #DFE0E0",
"0.	c #DFDEDE",
"a.	c #DFD3D4",
"b.	c #E1B4B5",
"c.	c #E56364",
"d.	c #E60D19",
"e.	c #E47A7C",
"f.	c #DEE1E1",
"g.	c #E29C9C",
"h.	c #E1B5B6",
"i.	c #E60C19",
"j.	c #E47B7D",
"k.	c #DFCFD0",
"l.	c #DEE3E3",
"m.	c #DEDFDF",
"n.	c #E0C4C4",
"o.	c #E56263",
"p.	c #E29D9E",
"q.	c #DFD0D0",
"r.	c #DEE2E1",
"s.	c #DFD5D5",
"t.	c #E1B7B7",
"u.	c #E56566",
"v.	c #E60817",
"w.	c #E56769",
"x.	c #E1AFB0",
"y.	c #E0BFBF",
"z.	c #E0C3C3",
"A.	c #DFD6D6",
"B.	c #DFD3D3",
"C.	c #E0C7C8",
"D.	c #E2A5A6",
"E.	c #E55153",
"F.	c #E60004",
"G.	c #E1B0B0",
"H.	c #E0C1C1",
"I.	c #E0C7C7",
"J.	c #E0C8C9",
"K.	c #E1B7B8",
"L.	c #E29B9B",
"M.	c #E55455",
"N.	c #E60214",
"O.	c #E63337",
"P.	c #E55A5C",
"Q.	c #E55D5F",
"R.	c #E38182",
"S.	c #E1BEBE",
"T.	c #E38E8F",
"U.	c #E55255",
"V.	c #E6242B",
"W.	c #E60213",
"X.	c #E6262C",
"Y.	c #E64246",
"Z.	c #E47072",
"`.	c #E39292",
" +	c #E0C8C8",
".+	c #E39B9B",
"++	c #E46F71",
"@+	c #E55053",
"#+	c #E6272C",
"$+	c #E6000C",
"%+	c #E61921",
"&+	c #E60001",
"*+	c #E46666",
"=+	c #E0C4C5",
"-+	c #E1B9B9",
";+	c #E47979",
">+	c #E61018",
",+	c #E60112",
"'+	c #E60616",
")+	c #E60F1B",
"!+	c #E54548",
"~+	c #E47F7F",
"{+	c #E0C6C6",
"]+	c #DFCFCF",
"^+	c #E38B8C",
"/+	c #E54C4F",
"(+	c #E61B24",
"_+	c #E55758",
":+	c #DFC9C9",
"<+	c #E0C9C9",
"[+	c #E0CACA",
"}+	c #E0C0C0",
"|+	c #E56A6A",
"1+	c #E60006",
"2+	c #E6373B",
"3+	c #E46F70",
"4+	c #E1B1B1",
"5+	c #E0CCCC",
"6+	c #E1B9BA",
"7+	c #E47B7C",
"8+	c #E53F42",
"9+	c #E6373A",
"0+	c #E47374",
"a+	c #E38485",
"b+	c #E47D7E",
"c+	c #E46B6D",
"d+	c #E54346",
"e+	c #E6000D",
"f+	c #E62128",
"g+	c #E6474A",
"h+	c #E38586",
"i+	c #E38686",
"j+	c #E4797A",
"k+	c #E54F51",
"l+	c #E60414",
"m+	c #E53A3E",
"n+	c #E54447",
"o+	c #E54044",
"p+	c #E6363B",
"q+	c #E62027",
"r+	c #E62229",
"s+	c #E53B3E",
"t+	c #E53E41",
"u+	c #E60113",
"v+	c #E60716",
"w+	c #E60515",
"                                                                                                    ",
"                                                                                                    ",
"                                          . . . . . . . . . +                                       ",
"                                        @ . . . . . . . . # $ %                                     ",
"                            & & & & * = - ; . . . . . > > , ' ) & & & &                             ",
"                            & & & & ! ~ { ] ^ . . . / ( ( _ : < [ & } &                             ",
"                            | & & & 1 2 3 4 5 6 > 7 8 9 0 a b c & & & d                             ",
"                      e f g h i j k l m n o p q r s t u v w x y z i & A B C D                       ",
"                      e E F G H H I J K L M N ( O P Q R S T U V A I W X Y Z `                       ",
"                       ...C +.@.@.@.#.$.%.&.*.( O P N =.-.;.>.+.,.@.'.).g !.-.                      ",
"                    ~.{.].^./.(.(.(._.C :.<.*.( O [.N =.-.}.|./.(.(.(.1.2.3.4.5.( >                 ",
"                  [.6.7.].e ..E E E E ..].<.8.( O P N =.-.].e ..E E E 9.0.a.b.c.( >                 ",
"                  d.e.-.f.e e e e e e e ].<.*.( O [.N g.-.].e e e e e e e a.h.0 ( >                 ",
"                  i.j.k.l.].m.e e e e m.f.n.o.( O [.*.p.q.r.m.e e e e e e s.t.u.( >                 ",
"                  v.w.x.y.z.A.e e e  .B.C.D.E.F.r s E.~.G.H.I.A.m.e m.` J.K.L.M.( >                 ",
"                  N.O.P.Q.R.I.e e e s.S.T.U.V.r > W.X.Y.P.Z.`. +].m.].q..+++@+#+$+.                 ",
"                  . s %+&+*+=+].].f.A.-+;+>+,+. . . '+)+%+!+~+{+l.f.l.]+^+/+(+W.> .                 ",
"                  . . . ( _+G.:+<+[+}+D.|+1+6 . . . . > > 2+3+4+S [+5+6+7+8+s r . .                 ",
"          . . . . . . . &+9+0+a+a+a+b+c+d+e+r . . . . . . f+g+0+h+a+i+j+k+X.l+> . . . .             ",
"          . . . . . . . O %+m+n+n+n+o+p+q+> . . . . . . . i.r+s+!+n+!+t+X.)+u+. . . . .             ",
"          . . . . . . . . u+'+v.v.v.v+w+W.. . . . . . . . ,+W.'+v.v.v.v+7 ,+. . . . . .             ",
"          . . . . . . . . . r r r r r > . . . . . . . . . . > r r r r r > . . . . . . .             ",
"          . . . . . . . . . . . . . . . . . . . . . . . . . . . . . . . . . . . . . . .             ",
"          . . . . . . . . . . . . . . . . . . . . . . . . . . . . . . . . . . . . . . .             ",
"          . . . . . . . . . . . . . . . . . . . . . . . . . . . . . . . . . . . . . . .             ",
"          . . . . . . . . . . . . . . . . . . . . . . . . . . . . . . . . . . . . . . .             ",
"          . . . . . . . . . . . . . . . . . . . . . . . . . . . . . . . . . . . . . . .             ",
"          . . . . . . . . . . . . . . . . . . . . . . . . . . . . . . . . . . . . . . .             ",
"          . . . . . . . . . . . . . . . . . . . . . . . . . . . . . . . . . . . . . . .             ",
"          . . . . . . . . . . . . . . . . . . . . . . . . . . . . . . . . . . . . . . .             ",
"          . . . . . . . . . . . . . . . . . . . . . . . . . . . . . . . . . . . . . . .             ",
"          . . . . . . . . . . . . . . . . . . . . . . . . . . . . . . . . . . . . . . .             ",
"          . . . . . . . . . . . . . . . . . . . . . . . . . . . . . . . . . . . . . . .             ",
"          . . . . . . . . . . . . . . . . . . . . . . . . . . . . . . . . . . . . . . .             ",
"          . . . . . . . . . . . . . . . . . . . . . . . . . . . . . . . . . . . . . . .             ",
"          . . . . . . . . . . .       . . . . . . . . . . . .     . . . . . . . . . . .             ",
"          . . . . . . . . . .         . . . . . . . . . . . .     . . . . . . . . . .               ",
"                . . . . . .                 . . . . . .                 . . . . .                   ",
"                  . . . .                   . . . . . .                 . . . . .                   ",
"                    . .                     . . . . . .                 . . . . .                   ",
"                                                                              . .                   ",
"                                                                                                    ",
"                                                                                                    ",
"                                                                                                    ",
"                                                                                                    ",
"                                                                                                    ",
"                                                                                                    ",
"                                                                                                    ",
"                                                                                                    ",
"                                                                                                    "};
