/* XPM */
static char * AnyConv_com__spr_ghost_red_1_xpm[] = {
"50 50 294 2",
"  	c None",
". 	c #210000",
"+ 	c #800202",
"@ 	c #AE0404",
"# 	c #B30505",
"$ 	c #B20505",
"% 	c #680101",
"& 	c #6A0202",
"* 	c #6A0101",
"= 	c #EF0909",
"- 	c #F90A0A",
"; 	c #F70A0A",
"> 	c #6F0202",
", 	c #C70606",
"' 	c #DC0707",
") 	c #DA0707",
"! 	c #E70808",
"~ 	c #FA0A0A",
"{ 	c #FE0A0A",
"] 	c #FD0A0A",
"^ 	c #850202",
"/ 	c #B60505",
"( 	c #EC0909",
"_ 	c #FF0A0A",
": 	c #FC0A0A",
"< 	c #550101",
"[ 	c #620101",
"} 	c #BE0505",
"| 	c #F30909",
"1 	c #FB0A0A",
"2 	c #3A0000",
"3 	c #AD0404",
"4 	c #CF0606",
"5 	c #D20707",
"6 	c #E80808",
"7 	c #9A0303",
"8 	c #D80707",
"9 	c #E50808",
"0 	c #F80A0A",
"a 	c #FC0000",
"b 	c #FC0B0B",
"c 	c #FC0808",
"d 	c #FC0D0D",
"e 	c #FC4D4D",
"f 	c #FC7171",
"g 	c #FD7474",
"h 	c #FD7575",
"i 	c #FC6464",
"j 	c #FC2E2E",
"k 	c #FC0303",
"l 	c #FC4242",
"m 	c #FC6D6D",
"n 	c #FC6A6A",
"o 	c #FC3B3B",
"p 	c #FC1515",
"q 	c #FD9A9A",
"r 	c #FEDDDD",
"s 	c #FEE4E4",
"t 	c #FEE3E3",
"u 	c #FEC5C5",
"v 	c #FC5E5E",
"w 	c #FD8585",
"x 	c #FED7D7",
"y 	c #FEE5E5",
"z 	c #FED1D1",
"A 	c #FD7676",
"B 	c #FDADAD",
"C 	c #FFFBFB",
"D 	c #FFFFFF",
"E 	c #FEDFDF",
"F 	c #FC6565",
"G 	c #FD9595",
"H 	c #FFF3F3",
"I 	c #FFECEC",
"J 	c #FD8383",
"K 	c #FC0707",
"L 	c #FC1212",
"M 	c #FC4646",
"N 	c #FC6363",
"O 	c #FDBABA",
"P 	c #FFF9F9",
"Q 	c #FEE2E2",
"R 	c #FD8888",
"S 	c #FC5B5B",
"T 	c #FC5757",
"U 	c #FC2D2D",
"V 	c #FC0202",
"W 	c #FC0909",
"X 	c #FC3D3D",
"Y 	c #FC5D5D",
"Z 	c #FDA7A7",
"` 	c #FFEDED",
" .	c #FD9B9B",
"..	c #FC5C5C",
"+.	c #FC3737",
"@.	c #FC0505",
"#.	c #FC2929",
"$.	c #FDA0A0",
"%.	c #FED6D6",
"&.	c #FEDADA",
"*.	c #FEEAEA",
"=.	c #FFFDFD",
"-.	c #FFF6F6",
";.	c #FC0606",
">.	c #FD8D8D",
",.	c #FED2D2",
"'.	c #FEE6E6",
").	c #FECECE",
"!.	c #FD8080",
"~.	c #FC3131",
"{.	c #FEBDBD",
"].	c #FFEAEA",
"^.	c #FD7E7E",
"/.	c #FC0404",
"(.	c #FFF8F8",
"_.	c #FFF5F5",
":.	c #FD9898",
"<.	c #FC3030",
"[.	c #FEBCBC",
"}.	c #FFFCFC",
"|.	c #FCFCFC",
"1.	c #F7F7F7",
"2.	c #F6F6F6",
"3.	c #F6F9F9",
"4.	c #F8DFDF",
"5.	c #FB7878",
"6.	c #FDA6A6",
"7.	c #FFF7F7",
"8.	c #FDFDFD",
"9.	c #F8F8F8",
"0.	c #F7E9E9",
"a.	c #FA9191",
"b.	c #E6E6E6",
"c.	c #B1B1B1",
"d.	c #A4A4A4",
"e.	c #A6A6A6",
"f.	c #A4A7A7",
"g.	c #BC9696",
"h.	c #EE5050",
"i.	c #FD0000",
"j.	c #EEEEEE",
"k.	c #B9B9B9",
"l.	c #A3A3A3",
"m.	c #B39D9D",
"n.	c #E66161",
"o.	c #D4D4D4",
"p.	c #565656",
"q.	c #000000",
"r.	c #7A0000",
"s.	c #E40707",
"t.	c #E3E3E3",
"u.	c #727272",
"v.	c #5E0000",
"w.	c #D60505",
"x.	c #555555",
"y.	c #7B0202",
"z.	c #E40808",
"A.	c #737373",
"B.	c #5F0101",
"C.	c #D70707",
"D.	c #545454",
"E.	c #790202",
"F.	c #E2E2E2",
"G.	c #717171",
"H.	c #5D0101",
"I.	c #D60707",
"J.	c #FFFAFA",
"K.	c #FFFEFE",
"L.	c #D5D5D5",
"M.	c #5C5C5C",
"N.	c #211C1C",
"O.	c #210707",
"P.	c #7E0202",
"Q.	c #FDA5A5",
"R.	c #777777",
"S.	c #221E1E",
"T.	c #210C0C",
"U.	c #640101",
"V.	c #FC2424",
"W.	c #FD8E8E",
"X.	c #FEC0C0",
"Y.	c #FEC3C3",
"Z.	c #FEDEDE",
"`.	c #E9E9E9",
" +	c #BDBDBD",
".+	c #B3B4B4",
"++	c #B49D9D",
"@+	c #B34949",
"#+	c #B00000",
"$+	c #C40606",
"%+	c #F00909",
"&+	c #F0F0F0",
"*+	c #C4C4C4",
"=+	c #B4A6A6",
"-+	c #B35D5D",
";+	c #B10000",
">+	c #BD0505",
",+	c #E90808",
"'+	c #FC2A2A",
")+	c #FC3F3F",
"!+	c #FDB2B2",
"~+	c #FDFEFE",
"{+	c #FBFBFB",
"]+	c #FAFCFC",
"^+	c #FADADA",
"/+	c #F86868",
"(+	c #F70000",
"_+	c #FC2525",
":+	c #FC3939",
"<+	c #FC3232",
"[+	c #FD9D9D",
"}+	c #FFF2F2",
"|+	c #FEFEFE",
"1+	c #FAFDFD",
"2+	c #FAE7E7",
"3+	c #F88383",
"4+	c #FFDFDF",
"5+	c #FE6B6B",
"6+	c #FE8686",
"7+	c #FC1414",
"8+	c #FD8C8C",
"9+	c #FEC9C9",
"0+	c #FED0D0",
"a+	c #FDB4B4",
"b+	c #FC5555",
"c+	c #FD7979",
"d+	c #FEBEBE",
"e+	c #FC6B6B",
"f+	c #FC3434",
"g+	c #FC4C4C",
"h+	c #FC4F4F",
"i+	c #FC4E4E",
"j+	c #FC4343",
"k+	c #FC1F1F",
"l+	c #FC2C2C",
"m+	c #FC4A4A",
"n+	c #FC4747",
"o+	c #FC2727",
"p+	c #D90707",
"q+	c #EB0909",
"r+	c #DB0707",
"s+	c #F50909",
"t+	c #E00808",
"u+	c #DF0808",
"v+	c #EE0909",
"w+	c #ED0909",
"x+	c #AF0404",
"y+	c #F10909",
"z+	c #D40707",
"A+	c #880303",
"B+	c #C60606",
"C+	c #910303",
"D+	c #A50404",
"E+	c #A00404",
"F+	c #BB0505",
"G+	c #8D0303",
"H+	c #870202",
"I+	c #CB0606",
"J+	c #F60A0A",
"K+	c #C80606",
"L+	c #940303",
"M+	c #8A0303",
"N+	c #7F0202",
"O+	c #9D0303",
"P+	c #D30707",
"Q+	c #A90404",
"R+	c #730202",
"S+	c #6E0202",
"T+	c #A60404",
"U+	c #830202",
"V+	c #5E0101",
"W+	c #D10707",
"X+	c #8E0303",
"Y+	c #C20606",
"Z+	c #B50505",
"`+	c #670101",
" @	c #DD0707",
".@	c #930303",
"+@	c #CD0606",
"@@	c #230000",
"#@	c #A40404",
"$@	c #B80505",
"%@	c #4D0101",
"&@	c #440101",
"*@	c #700202",
"=@	c #110000",
"-@	c #A20404",
";@	c #8F0303",
">@	c #CC0606",
",@	c #690101",
"'@	c #6B0202",
")@	c #610101",
"!@	c #650101",
"~@	c #630101",
"                                      . . . . . . . . . . . .                                       ",
"                                    + @ # $ $ $ $ $ $ $ $ # @ +                                     ",
"                            % & * % @ = - ; ; ; ; ; ; ; ; - = @ % * & %                             ",
"                          > , ' ) ) ! ~ { ] ] ] ] ] ] ] ] { ~ ! ) ) ' , >                           ",
"                        ^ / ( _ { { ] : : : : : : : : : : : : ] { { _ ( / ^                         ",
"                  < < [ } | 1 : : : : : : : : : : : : : : : : : : : : 1 | } [ < <                   ",
"                2 3 4 5 6 : ] : : : : : : : : : : : : : : : : : : : : ] : 6 5 4 3 2                 ",
"              % 7 8 : ] : : : : : : : : : : : : : : : : : : : : : : : : : : ] : 8 7 %               ",
"            2 7 9 0 : : : : : : : : : : : : : : : : : : : : : : : : : : : : : : 0 9 7 2             ",
"          < 3 8 0 { : : : : : : : : : : : : : : : : : : : : : : : : : : : : : : { 0 8 3 <           ",
"          < 4 : : : : : : : : : : : : : : : : : : : : : : : : : : : : : : : : : : : : 4 <           ",
"          [ 5 ] : : : : : : : : : : : : : : : : : : : : : : : : : : : : : : : : : : ] 5 [           ",
"        ^ } 6 : : : : : : : : a a a a a a a a b : : : : : : : b a a a a a a a a b : : 6 } ^         ",
"      > / | : : : : : : : c d e f g g g h i j a : : : : : : : k l m h g g h n o a : : : | / >       ",
"    % , ( 1 ] : : : : : : a p q r s t t s u v a : : : : : : : a w x y t t y z A a : : ] 1 ( , %     ",
"    & ' _ : : : : : b c a a a B C D D D D E F a a a b : : a a a G H D D D D I J a a a b : _ ' &     ",
"    * ) { : : : : : K L M v N O P D D D D Q R S T U V W W X v Y Z H D D D D `  .S ..+.@.: { ) *     ",
"    % ) { : : : : : a #.$.%.&.*.=.D D D D -.E &.u n a @.;.>.,.&.'.C D D D D P t &.).!.a : { ) %     ",
"  + @ ! ] : : : : : a ~.{.=.D D D D D D D D D D ].^.a k /.Z (.D D D D D D D D D D _.:.a : ] ! @ +   ",
". @ = ~ : : : : : : a <.[.}.D D D D |.1.2.1.1.3.4.5.a k /.6.7.D D D D 8.9.2.1.1.3.0.a.a : : ~ = @ . ",
". # - { : : : : : : a <.[.}.D D D D b.c.d.e.e.f.g.h.i.k /.6.7.D D D D j.k.l.e.e.f.m.n.i.: : { - # . ",
". $ ; ] : : : : : : a <.[.}.D D D D o.p.q.q.q.q.r.s.{ k /.6.7.D D D D t.u.q.q.q.q.v.w.] : : ] ; $ . ",
". $ ; ] : : : : : : a <.[.}.D D D D o.x.q.q.q.q.r.s.{ k /.6.7.D D D D t.u.q.q.q.q.v.w.] : : ] ; $ . ",
". $ ; ] : : : : : : a <.[.}.D D D D o.p.q.q.q.q.y.z.{ k /.6.7.D D D D t.A.q.q.q.q.B.C.] : : ] ; $ . ",
". $ ; ] : : : : : : a ~.[.=.D D D D o.D.q.q.q.q.E.z.{ k /.Z 7.D D D D F.G.q.q.q.q.H.I.] : : ] ; $ . ",
". $ ; ] : : : : : : a <.O J.K.K.D D L.M.q.N.O.q.P.9 { k /.Q._.D K.D D t.R.q.S.T.q.U.C.] : : ] ; $ . ",
". $ ; ] : : : : : : a V.W.X.Y.Z.}.D `. +.+++@+#+$+%+] ;.K ^.[.Y.x P D &+*+.+=+-+;+>+,+] : : ] ; $ . ",
". $ ; ] : : : : : : W d '++.)+!+P D ~+{+]+^+/+(+0 1 : : : _+:+<+[+}+D |+{+1+2+3+(+0 1 : : : ] ; $ . ",
". $ ; ] : : : : : : : W a a a B P D D D D 4+5+i.] : : : : a a a G }+D D D D I 6+i.] : : : : ] ; $ . ",
". $ ; ] : : : : : : : : : V 7+8+9+0+).).0+a+b+a : : : : : : : a c+Y.0+).).0+d+e+a : : : : : ] ; $ . ",
". $ ; ] : : : : : : : : : W b f+g+h+i+i+h+j+k+@.: : : : : : : K l+m+h+i+i+h+n+o+@.: : : : : ] ; $ . ",
". $ ; ] : : : : : : : : : : : a a a a a a a k b : : : : : : : b a a a a a a a a b : : : : : ] ; $ . ",
". $ ; ] : : : : : : : : : : : : : : : : : : : : : : : : : : : : : : : : : : : : : : : : : : ] ; $ . ",
". $ ; ] : : : : : : : : : : : : : : : : : : : : : : : : : : : : : : : : : : : : : : : : : : ] ; $ . ",
". $ ; ] : : : : : : : : : : : : : : : : : : : : : : : : : : : : : : : : : : : : : : : : : : ] ; $ . ",
". $ ; ] : : : : : : : : : : : : : : : : : : : : : : : : : : : : : : : : : : : : : : : : : : ] ; $ . ",
". $ ; ] : : : : : : : : : : : : : : : : : : : : : : : : : : : : : : : : : : : : : : : : : : ] ; $ . ",
". $ ; ] : : : : : : : : : : : : : : : : : : : : : : : : : : : : : : : : : : : : : : : : : : ] ; $ . ",
". $ ; ] : : : : : : : : : : : : : : : : : : : : : : : : : : : : : : : : : : : : : : : : : : ] ; $ . ",
". $ ; ] : : : : : : : : : : : : : : : : : : : : : : : : : : : : : : : : : : : : : : : : : : ] ; $ . ",
". $ ; ] : : : : : : : : : : : : : : : : : : : : : : : : : : : : : : : : : : : : : : : : : : ] ; $ . ",
". $ ; ] : : : : : : : : : : : : : : : : : : : : : : : : : : : : : : : : : : : : : : : : : : ] ; $ . ",
". $ ; ] : : : : ] : : : : : : : ] : : : : : : ] ] : : : : : : ] ] : : : : : ] : : : : : ] : ] ; $ . ",
". # - { : : { %+p+q+] : : : ] q+p+%+{ : : ] : 9 r+s+{ : : ] ~ t+u+- { ] : ! ) | { : { v+8 w+_ 0 $ . ",
". x+y+1 : 1 0 z+A+B+s+1 : 1 s+B+A+z+0 1 : 1 y+/ C+t+- : : ~ ( D+E+,+~ 1 | F+G+' - 1 ; 4 H+I+; J+# . ",
"  ^ # ,+_ ; K+L+  M+>+y+_ y+>+M+  L+K+; _ ,+# N+[ O+P+1 _ t+Q+R+S+T+u+( / U+V+7 W+y+B+C+  X+Y+v+Z+. ",
"    `+$+ @P+.@      P.+@ @+@P.      .@P+ @$+`+    @@#@8 r+$@%@    &@/ , *@    =@-@+@;@      A+>@Q+. ",
"      `+& ,@          ,@'@,@          ,@& `+        )@* & !@        !@%         )@,@          % ~@  ",
"                                                                                                    ",
"                                                                                                    "};
