/* XPM */
static char * lvert_xpm[] = {
"50 50 64 1",
" 	c None",
".	c #1919A6",
"+	c #1919A7",
"@	c #1919A8",
"#	c #1919A9",
"$	c #1A1AAF",
"%	c #1B1BB4",
"&	c #1B1BB5",
"*	c #1B1BB6",
"=	c #1A1AB0",
"-	c #1A1AAB",
";	c #1C1CBB",
">	c #1C1CC0",
",	c #1C1CC1",
"'	c #2020D5",
")	c #2020D8",
"!	c #2121DD",
"~	c #2121DC",
"{	c #2121DB",
"]	c #1D1DD5",
"^	c #1D1DDA",
"/	c #1D1DD1",
"(	c #1D1DD0",
"_	c #1D1DCF",
":	c #1B1BB2",
"<	c #1D1DC2",
"[	c #1E1ECC",
"}	c #1F1FD4",
"|	c #2020D6",
"1	c #2020D7",
"2	c #2121DE",
"3	c #2020DD",
"4	c #1A1AAE",
"5	c #1E1ECB",
"6	c #2020D9",
"7	c #1A1AAC",
"8	c #1D1DC4",
"9	c #1919AA",
"0	c #1B1BB9",
"a	c #1E1ECD",
"b	c #2020DB",
"c	c #1F1FCE",
"d	c #1C1CBD",
"e	c #1B1BB8",
"f	c #1F1FD0",
"g	c #1A1AAA",
"h	c #1E1EC7",
"i	c #2020DA",
"j	c #1C1CB8",
"k	c #1A1AAD",
"l	c #1F1FD1",
"m	c #1A1AB1",
"n	c #1B1BB7",
"o	c #1F1FD2",
"p	c #2020D2",
"q	c #1D1DC0",
"r	c #2020D4",
"s	c #1C1CB9",
"t	c #1D1DC5",
"u	c #1C1CBA",
"v	c #1E1ECA",
"w	c #1F1FD3",
"x	c #1F1FCF",
"y	c #1919AB",
"                     ....+++++++++................",
"                 ....+@##$$%&&&*&&==$$............",
"               ..+#-$&;>,')!!!!!!!~~~{]]^^^^^^^/(_",
"             ..@-:<[}|1))2222222222222333333333333",
"           ..@4;5}6~222222222222222222222222222222",
"          .+7;[1~222222222222222222222222222222222",
"         .+=8'~22222222222222222222222222222222222",
"        .@:56!222222222222222222222222222222222222",
"       .90ab22222222222222222222222222222222222222",
"      .@0cb222222222222222222222222222222222222222",
"     .+:ab2222222222222222222222222222222222222222",
"    .+=5b22222222222222222222222222222222222222222",
"    .786222222222222222222222222222222222222222222",
"   .@;'!222222222222222222222222222222222222222222",
"   .4[~2222222222222222222222222222222222222222222",
"  .@;122222222222222222222222222222222222222222222",
"  .-5~22222222222222222222222222222222222222222222",
" .+:}222222222222222222222222222222222222222222222",
" .#<6222222222222222222222222222222222222222222222",
" .-[~222222222222222222222222222222222222222222222",
" .$}2222222222222222222222222222222222222222222222",
".+&|2222222222222222222222222222222222222222222222",
".@;12222222222222222222222222222222222222222222222",
".#>)2222222222222222222222222222222222222222222222",
".#,)2222222222222222222222222222222222222222222222",
".#,)2222222222222222222222222222222222222222222222",
".#,)2222222222222222222222222222222222222222222222",
".@d12222222222222222222222222222222222222222222222",
".+e|2222222222222222222222222222222222222222222222",
" +:'2222222222222222222222222222222222222222222222",
" .7f~222222222222222222222222222222222222222222222",
" .ghi222222222222222222222222222222222222222222222",
" .@j|222222222222222222222222222222222222222222222",
"  .kf~22222222222222222222222222222222222222222222",
"  .#<622222222222222222222222222222222222222222222",
"   +:l~2222222222222222222222222222222222222222222",
"   .9<62222222222222222222222222222222222222222222",
"    +m[b222222222222222222222222222222222222222222",
"    .@no!22222222222222222222222222222222222222222",
"     .9;p!2222222222222222222222222222222222222222",
"      .-qr!222222222222222222222222222222222222222",
"       +$<r!22222222222222222222222222222222222222",
"        @4;p~2222222222222222222222222222222222222",
"         +gsab222222222222222222222222222222222222",
"          .#%tr~2222222222222222222222222222222222",
"           .@4ntr~!2222222222222222222222222222222",
"             +@4%d5'{~!!!!!22222222222333333333333",
"               ++g=%u>tv5hvooww}5axxc[]]^^^^^^^/(_",
"                 .++#yk$=@@-----ggggg@............",
"                     ..++........................."};
