/* XPM */
static char * necorner_xpm[] = {
"50 50 90 1",
" 	c None",
".	c #1919A7",
"+	c #1919A6",
"@	c #1919A9",
"#	c #1919A8",
"$	c #1A1AAE",
"%	c #1A1AAD",
"&	c #1A1AAC",
"*	c #1A1AAB",
"=	c #1919AA",
"-	c #1B1BB7",
";	c #1B1BB6",
">	c #1B1BB4",
",	c #1B1BB3",
"'	c #1A1AB1",
")	c #1A1AB0",
"!	c #1D1DC5",
"~	c #1D1DC4",
"{	c #1D1DC2",
"]	c #1C1CC0",
"^	c #1C1CBE",
"/	c #1C1CBC",
"(	c #1B1BBA",
"_	c #1B1BB2",
":	c #1A1AAA",
"<	c #1A1AA9",
"[	c #1F1FD0",
"}	c #1F1FCF",
"|	c #1F1FCE",
"1	c #1E1ECD",
"2	c #1E1ECB",
"3	c #1E1EC9",
"4	c #1D1DC7",
"5	c #1D1DBF",
"6	c #1B1BB9",
"7	c #1B1BB5",
"8	c #1B1BB1",
"9	c #2020D9",
"0	c #2020D8",
"a	c #2020D7",
"b	c #2020D6",
"c	c #2020D5",
"d	c #2020D4",
"e	c #2020D2",
"f	c #2121DD",
"g	c #2121DC",
"h	c #2121DB",
"i	c #1F1FD2",
"j	c #1E1EC8",
"k	c #1C1CBB",
"l	c #1A1AB2",
"m	c #1919AB",
"n	c #2121DE",
"o	c #2020DA",
"p	c #2020D3",
"q	c #1D1DC3",
"r	c #2121DA",
"s	c #1E1ECA",
"t	c #1A1AAF",
"u	c #1E1ECE",
"v	c #1C1CBF",
"w	c #1C1CBA",
"x	c #2020DC",
"y	c #1F1FD4",
"z	c #1E1EC4",
"A	c #1E1EC7",
"B	c #1D1DBE",
"C	c #1F1FD1",
"D	c #1C1CB9",
"E	c #1F1FCB",
"F	c #1D1DC1",
"G	c #1C1CB7",
"H	c #2020D1",
"I	c #1D1DBD",
"J	c #1E1ECF",
"K	c #1B1BB8",
"L	c #1F1FD5",
"M	c #1E1ECC",
"N	c #1C1CC1",
"O	c #1F1FD3",
"P	c #1C1CBD",
"Q	c #2020DB",
"R	c #1D1DC0",
"S	c #1E1EC6",
"T	c #1C1CB8",
"U	c #1F1FCD",
"V	c #1B1BB0",
"W	c #1A1AB3",
"X	c #1D1DC6",
"Y	c #1B1BBB",
"....++++                                          ",
"@@@##...                                          ",
"$$%%&*==@##...++                                  ",
"---;>,')$&*=@#..                                  ",
"!~~{]^/(->_)$&:<#...                              ",
"[[}|1234~{5/678$*=@#                              ",
"99900abcde}24{/;,)%*@#..                          ",
"fffffffggh9bi1j~5k;l$m@@                          ",
"nnnnnnnnnfgho0bp}3q/;'$*@.++                      ",
"nnnnnnnnnnnnfffh0d|j{/-l%=#.                      ",
"nnnnnnnnnnnnnnnfgr0d[sq/7t=#.+                    ",
"nnnnnnnnnnnnnnnnnnfh0du4v-'*#.                    ",
"nnnnnnnnnnnnnnnnnnnfgoai2qw_&<..                  ",
"nnnnnnnnnnnnnnnnnnnnnnx9y1zk,%:@                  ",
"nnnnnnnnnnnnnnnnnnnnnnngoc}A/>t*@#                ",
"nnnnnnnnnnnnnnnnnnnnnnnnfha[AB-'&@                ",
"nnnnnnnnnnnnnnnnnnnnnnnnnfhaCs{D'&@.              ",
"nnnnnnnnnnnnnnnnnnnnnnnnnnfg0p2{D)*#              ",
"nnnnnnnnnnnnnnnnnnnnnnnnnnnfg0pEFGt<.+            ",
"nnnnnnnnnnnnnnnnnnnnnnnnnnnnfg0e357%@.            ",
"nnnnnnnnnnnnnnnnnnnnnnnnnnnnnfg0HjI,&#.+          ",
"nnnnnnnnnnnnnnnnnnnnnnnnnnnnnnfha[A/lm#+          ",
"nnnnnnnnnnnnnnnnnnnnnnnnnnnnnnnfha[4('=.++        ",
"nnnnnnnnnnnnnnnnnnnnnnnnnnnnnnnnfhaJqKt@.+        ",
"nnnnnnnnnnnnnnnnnnnnnnnnnnnnnnnnnfoLMN7%@.        ",
"nnnnnnnnnnnnnnnnnnnnnnnnnnnnnnnnnnx9O3Plm#        ",
"nnnnnnnnnnnnnnnnnnnnnnnnnnnnnnnnnnfx0[~6t@.+      ",
"nnnnnnnnnnnnnnnnnnnnnnnnnnnnnnnnnnnfQc2R,=.+      ",
"nnnnnnnnnnnnnnnnnnnnnnnnnnnnnnnnnnnfg0CST$@.      ",
"nnnnnnnnnnnnnnnnnnnnnnnnnnnnnnnnnnnnfrbMB_*.      ",
"nnnnnnnnnnnnnnnnnnnnnnnnnnnnnnnnnnnnng9C!D$#.+    ",
"nnnnnnnnnnnnnnnnnnnnnnnnnnnnnnnnnnnnnfQc2v'@.+    ",
"nnnnnnnnnnnnnnnnnnnnnnnnnnnnnnnnnnnnnfg0C!7:.+    ",
"nnnnnnnnnnnnnnnnnnnnnnnnnnnnnnnnnnnnnnfrdsD%@+    ",
"nnnnnnnnnnnnnnnnnnnnnnnnnnnnnnnnnnnnnnngaUB_*.++  ",
"nnnnnnnnnnnnnnnnnnnnnnnnnnnnnnnnnnnnnnng9CqG%#++  ",
"nnnnnnnnnnnnnnnnnnnnnnnnnnnnnnnnnnnnnnnfoy3IV<.+  ",
"nnnnnnnnnnnnnnnnnnnnnnnnnnnnnnnnnnnnnnnfQb|{,<.+  ",
"nnnnnnnnnnnnnnnnnnnnnnnnnnnnnnnnnnnnnnnfg0CS7:.+  ",
"nnnnnnnnnnnnnnnnnnnnnnnnnnnnnnnnnnnnnnnnfrd3T&#+  ",
"nnnnnnnnnnnnnnnnnnnnnnnnnnnnnnnnnnnnnnnnnhbEw$@.  ",
"nnnnnnnnnnnnnnnnnnnnnnnnnnnnnnnnnnnnnnnnng0UP)=.  ",
"nnnnnnnnnnnnnnnnnnnnnnnnnnnnnnnnnnnnnnnnng0|vWm.++",
"nnnnnnnnnnnnnnnnnnnnnnnnnnnnnnnnnnnnnnnnng0}F7&.++",
"nnnnnnnnnnnnnnnnnnnnnnnnnnnnnnnnnnnnnnnnng9[q-%.++",
"nnnnnnnnnnnnnnnnnnnnnnnnnnnnnnnnnnnnnnnnnf9C!6$#++",
"nnnnnnnnnnnnnnnnnnnnnnnnnnnnnnnnnnnnnnnnnf9iX(t#++",
"nnnnnnnnnnnnnnnnnnnnnnnnnnnnnnnnnnnnnnnnnfoO4Yt#.+",
"nnnnnnnnnnnnnnnnnnnnnnnnnnnnnnnnnnnnnnnnnfoO4Yt#.+",
"nnnnnnnnnnnnnnnnnnnnnnnnnnnnnnnnnnnnnnnnnfoO4Yt#.+"};
