/* XPM */
static char * rvert_xpm[] = {
"50 50 64 1",
" 	c None",
".	c #1919A6",
"+	c #1919A7",
"@	c #1919A8",
"#	c #1A1AAA",
"$	c #1A1AAB",
"%	c #1A1AB0",
"&	c #1A1AAF",
"*	c #1A1AAD",
"=	c #1919AB",
"-	c #1919A9",
";	c #1D1DCF",
">	c #1D1DD0",
",	c #1D1DD1",
"'	c #1D1DDA",
")	c #1D1DD5",
"!	c #1E1ECC",
"~	c #1F1FCE",
"{	c #1F1FCF",
"]	c #1E1ECD",
"^	c #1E1ECB",
"/	c #1F1FD4",
"(	c #1F1FD3",
"_	c #1F1FD2",
":	c #1E1ECA",
"<	c #1E1EC7",
"[	c #1D1DC5",
"}	c #1C1CC0",
"|	c #1C1CBA",
"1	c #1B1BB4",
"2	c #2020DD",
"3	c #2121DE",
"4	c #2121DD",
"5	c #2121DC",
"6	c #2121DB",
"7	c #2020D5",
"8	c #1C1CBD",
"9	c #1A1AAE",
"0	c #2020D4",
"a	c #1B1BB7",
"b	c #2020DB",
"c	c #1C1CB9",
"d	c #2020D2",
"e	c #1C1CBB",
"f	c #1D1DC2",
"g	c #1D1DC0",
"h	c #1919AA",
"i	c #1A1AB1",
"j	c #2020D9",
"k	c #1F1FD1",
"l	c #1B1BB2",
"m	c #1F1FD0",
"n	c #2020D6",
"o	c #1C1CB8",
"p	c #2020DA",
"q	c #1A1AAC",
"r	c #1B1BB8",
"s	c #2020D7",
"t	c #2020D8",
"u	c #1C1CC1",
"v	c #1B1BB5",
"w	c #1D1DC4",
"x	c #1B1BB9",
"y	c #1B1BB6",
".........................++..                     ",
"............@#####$$$$$@@%&*=-++.                 ",
";>,'''''''))!~{{]^/((__:<^:[}|1%#++               ",
"2222222222223333333333344444567^819@+             ",
"3333333333333333333333333333333450[a9@.           ",
"333333333333333333333333333333333350[1-.          ",
"333333333333333333333333333333333333b]c#+         ",
"33333333333333333333333333333333333335de9@        ",
"3333333333333333333333333333333333333340f&+       ",
"33333333333333333333333333333333333333340g$.      ",
"33333333333333333333333333333333333333334deh.     ",
"333333333333333333333333333333333333333334_a@.    ",
"333333333333333333333333333333333333333333b!i+    ",
"3333333333333333333333333333333333333333333jfh.   ",
"33333333333333333333333333333333333333333335kl+   ",
"33333333333333333333333333333333333333333333jf-.  ",
"333333333333333333333333333333333333333333335m*.  ",
"333333333333333333333333333333333333333333333no@. ",
"333333333333333333333333333333333333333333333p<#. ",
"3333333333333333333333333333333333333333333335mq. ",
"33333333333333333333333333333333333333333333337l+ ",
"3333333333333333333333333333333333333333333333nr+.",
"3333333333333333333333333333333333333333333333s8@.",
"3333333333333333333333333333333333333333333333tu-.",
"3333333333333333333333333333333333333333333333tu-.",
"3333333333333333333333333333333333333333333333tu-.",
"3333333333333333333333333333333333333333333333t}-.",
"3333333333333333333333333333333333333333333333se@.",
"3333333333333333333333333333333333333333333333nv+.",
"3333333333333333333333333333333333333333333333/&. ",
"3333333333333333333333333333333333333333333335!$. ",
"333333333333333333333333333333333333333333333jf-. ",
"333333333333333333333333333333333333333333333/l+. ",
"333333333333333333333333333333333333333333335^$.  ",
"33333333333333333333333333333333333333333333se@.  ",
"33333333333333333333333333333333333333333335!9.   ",
"33333333333333333333333333333333333333333347e@.   ",
"333333333333333333333333333333333333333333jwq.    ",
"33333333333333333333333333333333333333333b^%+.    ",
"3333333333333333333333333333333333333333b]l+.     ",
"333333333333333333333333333333333333333b~x@.      ",
"33333333333333333333333333333333333333b]xh.       ",
"3333333333333333333333333333333333334j^l@.        ",
"3333333333333333333333333333333333357w%+.         ",
"3333333333333333333333333333333335s!eq+.          ",
"3333333333333333333333333333335j/^e9@..           ",
"2222222222223333333333333ttsn/!fl$@..             ",
";>,'''''''))65554444444t7u}ev&$-+..               ",
"............&&%%vvyvvv1&&--@+....                 ",
"................+++++++++....                     "};
