/* XPM */
static char * secorner_xpm[] = {
"50 50 90 1",
" 	c None",
".	c #2121DE",
"+	c #2121DD",
"@	c #2020D9",
"#	c #1F1FD0",
"$	c #1D1DC5",
"%	c #1B1BB7",
"&	c #1A1AAE",
"*	c #1919A9",
"=	c #1919A7",
"-	c #1D1DC4",
";	c #1F1FCF",
">	c #1A1AAD",
",	c #2020D8",
"'	c #1F1FCE",
")	c #1D1DC2",
"!	c #1B1BB6",
"~	c #1919A8",
"{	c #1E1ECD",
"]	c #1C1CC0",
"^	c #1B1BB4",
"/	c #1A1AAC",
"(	c #1919A6",
"_	c #2020D7",
":	c #1E1ECB",
"<	c #1C1CBE",
"[	c #1B1BB3",
"}	c #1A1AAB",
"|	c #2020D6",
"1	c #1E1EC9",
"2	c #1C1CBC",
"3	c #1A1AB1",
"4	c #1919AA",
"5	c #2121DC",
"6	c #2020D5",
"7	c #1D1DC7",
"8	c #1B1BBA",
"9	c #1A1AB0",
"0	c #2020D4",
"a	c #2121DB",
"b	c #2020D2",
"c	c #1D1DBF",
"d	c #1B1BB2",
"e	c #2020DA",
"f	c #1F1FD2",
"g	c #1B1BB9",
"h	c #1B1BB5",
"i	c #1E1EC8",
"j	c #1B1BB1",
"k	c #1A1AAA",
"l	c #2020D3",
"m	c #1A1AA9",
"n	c #2121DA",
"o	c #1C1CBB",
"p	c #1D1DC3",
"q	c #1A1AB2",
"r	c #1E1ECA",
"s	c #1919AB",
"t	c #2020DC",
"u	c #1E1ECE",
"v	c #1F1FD4",
"w	c #1C1CBF",
"x	c #1A1AAF",
"y	c #1E1EC4",
"z	c #1C1CBA",
"A	c #1E1EC7",
"B	c #1F1FD1",
"C	c #1D1DBE",
"D	c #1F1FCB",
"E	c #1C1CB9",
"F	c #2020D1",
"G	c #1D1DC1",
"H	c #1C1CB7",
"I	c #1D1DBD",
"J	c #1F1FD5",
"K	c #1E1ECF",
"L	c #2020DB",
"M	c #1F1FD3",
"N	c #1E1ECC",
"O	c #1C1CC1",
"P	c #1B1BB8",
"Q	c #1C1CBD",
"R	c #1E1EC6",
"S	c #1D1DC0",
"T	c #1C1CB8",
"U	c #1F1FCD",
"V	c #1D1DC6",
"W	c #1B1BB0",
"X	c #1B1BBB",
"Y	c #1A1AB3",
"..........................................+@#$%&*=",
"..........................................+@#-%&*=",
"..........................................+@;-%>*=",
"..........................................+,')!>~=",
"..........................................+,{]^/~(",
"..........................................+_:<[}=(",
"..........................................+|1234=(",
"..........................................567894=(",
"..........................................50-%&*  ",
".........................................+ab)^/~  ",
".........................................5@;cd}~  ",
".........................................a|:294=  ",
"........................................+ef7g&*=  ",
"........................................+,{)h/~=  ",
"........................................+|i2jk=(  ",
".......................................+al-!&m=(  ",
".......................................5,;c[}~    ",
".......................................n01o94=    ",
"......................................+,'p!>*=    ",
".....................................+a0i2q}~=    ",
".....................................5,#)!&*      ",
".....................................e0r23s~      ",
"....................................t_up%&*=      ",
"...................................5@f72q}*=      ",
"..................................+ev:wh>*        ",
".................................+a6{p%x4=        ",
"................................+a_;yz34~(        ",
"...............................+5_#Aod}~=(        ",
"..............................+5,BA2[/~=          ",
".............................+5,lrC^>m=(          ",
"............................+5,l:)%xk=            ",
"...........................+a,bD)E3}*=            ",
"..........................+a_F1GE3/*              ",
".........................+a_#icH9/*~              ",
".......................+te_#AIhx}*                ",
".....................++t@JK72[>m~=                ",
"....................+5L,MNp8q/*=                  ",
".................++5n,6#1OP3s~=(                  ",
"................+5L@|B:-Qhx4~=                    ",
"...........+++55n,6BNRSgq>*=((                    ",
"..........+5Le@_0B:$CT[xs*=(                      ",
"+++++5555an,|vBUr$wEd&4*~=((                      ",
"eee@@@,,,|0B'1pCEh3&}*==                          ",
"MMMfB#;'UD1R)IHd>k*~==((                          ",
"777V$pGwQzTh[W>}*===                              ",
"XXX8g%hY9&/kmm~=((((                              ",
"xxxx&>/s4*~===((                                  ",
"~~~~~=====((((((                                  ",
"===(((((                                          ",
"((((((((                                          "};
