/* XPM */
static char * socorner_xpm[] = {
"50 50 90 1",
" 	c None",
".	c #1919A6",
"+	c #1919A7",
"@	c #1919A8",
"#	c #1A1AAF",
"$	c #1B1BBB",
"%	c #1D1DC7",
"&	c #1F1FD3",
"*	c #2020DA",
"=	c #2121DD",
"-	c #2121DE",
";	c #1B1BBA",
">	c #1D1DC6",
",	c #1F1FD2",
"'	c #2020D9",
")	c #1A1AAE",
"!	c #1B1BB9",
"~	c #1D1DC5",
"{	c #1F1FD1",
"]	c #1A1AAD",
"^	c #1B1BB7",
"/	c #1D1DC3",
"(	c #1F1FD0",
"_	c #2121DC",
":	c #1A1AAC",
"<	c #1B1BB5",
"[	c #1D1DC1",
"}	c #1F1FCF",
"|	c #2020D8",
"1	c #1919AB",
"2	c #1A1AB3",
"3	c #1C1CBF",
"4	c #1F1FCE",
"5	c #1919AA",
"6	c #1A1AB0",
"7	c #1C1CBD",
"8	c #1F1FCD",
"9	c #1919A9",
"0	c #1C1CBA",
"a	c #1F1FCB",
"b	c #2020D6",
"c	c #2121DB",
"d	c #1C1CB8",
"e	c #1E1EC9",
"f	c #2020D4",
"g	c #2121DA",
"h	c #1A1AAA",
"i	c #1E1EC6",
"j	c #1A1AA9",
"k	c #1B1BB3",
"l	c #1D1DC2",
"m	c #2020DB",
"n	c #1B1BB0",
"o	c #1D1DBD",
"p	c #1F1FD4",
"q	c #1C1CB7",
"r	c #1A1AAB",
"s	c #1B1BB2",
"t	c #1D1DBE",
"u	c #2020D7",
"v	c #1C1CB9",
"w	c #1E1ECA",
"x	c #1A1AB1",
"y	c #1E1ECB",
"z	c #2020D5",
"A	c #1E1ECC",
"B	c #1D1DC0",
"C	c #1D1DC4",
"D	c #2020DC",
"E	c #1A1AB2",
"F	c #1C1CC1",
"G	c #1F1FD5",
"H	c #1B1BB8",
"I	c #1E1ECF",
"J	c #1C1CBC",
"K	c #1E1EC7",
"L	c #1E1EC8",
"M	c #2020D1",
"N	c #1D1DBF",
"O	c #2020D2",
"P	c #2020D3",
"Q	c #1B1BB4",
"R	c #1C1CBB",
"S	c #1E1EC4",
"T	c #1E1ECD",
"U	c #1E1ECE",
"V	c #1B1BB6",
"W	c #1B1BB1",
"X	c #1C1CBE",
"Y	c #1C1CC0",
".+@#$%&*=-----------------------------------------",
".+@#$%&*=-----------------------------------------",
".+@#$%&*=-----------------------------------------",
"..@#;>,'=-----------------------------------------",
"..@)!~{'=-----------------------------------------",
"..+]^/('_-----------------------------------------",
"..+:<[}|_-----------------------------------------",
"..+1234|_-----------------------------------------",
"  +5678|_-----------------------------------------",
"  +9)0abc-----------------------------------------",
"  .@:defg=----------------------------------------",
"  .+h<i{|_=---------------------------------------",
"  .+jkl4bm=---------------------------------------",
"  .+jnoep*=---------------------------------------",
"  ..@]q/{'_---------------------------------------",
"  ..+rst8u_---------------------------------------",
"    .9]vwfg=--------------------------------------",
"    .+h<~{|_=-------------------------------------",
"    .+9x3yzm=-------------------------------------",
"    .+@)v~{'_-------------------------------------",
"      +rstAbg=------------------------------------",
"      +9)di{|_=-----------------------------------",
"      .+5kByzm=-----------------------------------",
"      .+9#!C(|D=----------------------------------",
"        @1E7e&'D----------------------------------",
"        +9]<FAG*=---------------------------------",
"        .+9#H/Iuc=--------------------------------",
"        ..+5x;%(uc=-------------------------------",
"          .@1EJK(uc=------------------------------",
"          .+@:koLM|_=-----------------------------",
"            +9]<NeO|_=----------------------------",
"            .+j#q[aP|_=---------------------------",
"              @r6vlyP|_=--------------------------",
"              +9:xvlw{uc=-------------------------",
"                9:x^tK(uc=------------------------",
"                @9r#QJK}z*_-----------------------",
"                  9h]kRSTp'D----------------------",
"                  ++j:s0/y,u*_=-------------------",
"                    +@rx^3%Uf|c=------------------",
"                    .+@5#<J/w(f|g_=---------------",
"                      +@5]E^JlL4f|c===------------",
"                      ..+9r)xVJ/e}Pb|*c_=---------",
"                          991)EVRNCLT,b'c__=======",
"                          ++@9r]6kVJl%y}Ofzbu||'''",
"                              @95r)W<!JNlC%eyT4}((",
"                              +++@jh:)6sQ^;JXYlCC~",
"                                  ++@95r:)6xkQV^^^",
"                                  ..+++@@955r:]]))",
"                                          +++@@999",
"                                          ....++++"};
